<svg width="27" height="27" viewBox="0 0 27 27" fill="none" xmlns="http://www.w3.org/2000/svg">
<path d="M10.125 3.375H5.625C5.02826 3.375 4.45597 3.61205 4.03401 4.03401C3.61205 4.45597 3.375 5.02826 3.375 5.625V10.125M10.125 3.375H21.375C21.9717 3.375 22.544 3.61205 22.966 4.03401C23.3879 4.45597 23.625 5.02826 23.625 5.625V10.125M10.125 3.375V23.625M3.375 10.125V21.375C3.375 21.9717 3.61205 22.544 4.03401 22.966C4.45597 23.3879 5.02826 23.625 5.625 23.625H10.125M3.375 10.125H23.625M23.625 10.125V21.375C23.625 21.9717 23.3879 22.544 22.966 22.966C22.544 23.3879 21.9717 23.625 21.375 23.625H10.125" stroke="white" stroke-width="2" stroke-linecap="round" stroke-linejoin="round"/>
</svg>
