<svg width="39" height="43" viewBox="0 0 39 43" fill="none" xmlns="http://www.w3.org/2000/svg">
<g clip-path="url(#clip0_1443_4)">
<path d="M5.4375 6.01562H10.125V11.2188H5.4375V6.01562Z" fill="white"/>
<path d="M14.8125 0.8125V16.4219H0.75V0.8125H14.8125ZM12.4688 3.41406H3.09375V13.8203H12.4688V3.41406ZM10.125 32.0312H5.4375V37.2344H10.125V32.0312Z" fill="white"/>
<path d="M14.8125 26.8281V42.4375H0.75V26.8281H14.8125ZM3.09375 29.4297V39.8359H12.4688V29.4297H3.09375ZM28.875 6.01562H33.5625V11.2188H28.875V6.01562Z" fill="white"/>
<path d="M24.1875 0.8125V16.4219H38.25V0.8125H24.1875ZM35.9062 3.41406V13.8203H26.5312V3.41406H35.9062ZM19.5 3.41406V0.8125H21.8438V6.01562H19.5V11.2188H17.1562V3.41406H19.5ZM19.5 16.4219V11.2188H21.8438V16.4219H19.5ZM14.8125 21.625V19.0234H17.1562V16.4219H19.5V21.625H21.8438V19.0234H33.5625V21.625H24.1875V24.2266H17.1562V21.625H14.8125ZM14.8125 21.625V24.2266H5.4375V21.625H3.09375V24.2266H0.75V19.0234H7.78125V21.625H14.8125ZM38.25 24.2266H35.9062V19.0234H38.25V24.2266ZM35.9062 24.2266H33.5625V29.4297H38.25V26.8281H35.9062V24.2266ZM26.5312 24.2266H31.2188V26.8281H28.875V29.4297H26.5312V24.2266ZM31.2188 32.0312V29.4297H28.875V32.0312H26.5312V34.6328H21.8438V37.2344H28.875V32.0312H31.2188ZM31.2188 32.0312H38.25V34.6328H33.5625V37.2344H31.2188V32.0312ZM21.8438 29.4297V32.0312H24.1875V26.8281H17.1562V29.4297H21.8438Z" fill="white"/>
<path d="M17.1562 32.0312H19.5V39.8359H28.875V42.4375H17.1562V32.0312ZM38.25 37.2344V42.4375H31.2188V39.8359H35.9062V37.2344H38.25Z" fill="white"/>
</g>
<defs>
<clipPath id="clip0_1443_4">
<rect width="37.5" height="41.625" fill="white" transform="translate(0.75 0.8125)"/>
</clipPath>
</defs>
</svg>
